<svg width="58" height="58" viewBox="0 0 58 58" fill="none" xmlns="http://www.w3.org/2000/svg">
<path d="M53.3158 16.7713C53.0269 15.6953 52.4605 14.7141 51.6732 13.9259C50.886 13.1376 49.9055 12.5699 48.8299 12.2797C44.8707 11.2148 29 11.2148 29 11.2148C29 11.2148 13.1293 11.2148 9.17012 12.274C8.09406 12.5633 7.11307 13.1307 6.32566 13.9191C5.53825 14.7075 4.97214 15.6892 4.68418 16.7656C3.625 20.7305 3.625 29 3.625 29C3.625 29 3.625 37.2695 4.68418 41.2287C5.26758 43.415 6.98945 45.1369 9.17012 45.7203C13.1293 46.7852 29 46.7852 29 46.7852C29 46.7852 44.8707 46.7852 48.8299 45.7203C51.0162 45.1369 52.7324 43.415 53.3158 41.2287C54.375 37.2695 54.375 29 54.375 29C54.375 29 54.375 20.7305 53.3158 16.7713ZM23.959 36.5898V21.4102L37.0996 28.9434L23.959 36.5898Z" fill="#0194FE" fill-opacity="0.62"/>
</svg>
