<svg width="64" height="64" viewBox="0 0 64 64" fill="none" xmlns="http://www.w3.org/2000/svg">
<g clip-path="url(#clip0)">
<path d="M63.916 32.7224L61.916 29.7225C61.8418 29.6117 61.7275 29.535 61.5967 29.5092L46.8721 26.6146C45.8018 25.8471 36.6709 19.4998 27.5001 19.4998C18.8176 19.4998 13.5041 21.1336 12.4972 21.4719L9.65828 20.5257C9.39409 20.4388 9.1129 20.5799 9.02601 20.8416C8.93849 21.1038 9.08014 21.387 9.34183 21.4739L12.3418 22.474C12.4488 22.5096 12.565 22.5076 12.6705 22.4701C12.7251 22.4501 18.2139 20.4999 27.5 20.4999C36.7215 20.4999 46.2771 27.4174 46.3719 27.4873C46.4315 27.5307 46.4999 27.5606 46.5712 27.5747L61.1991 30.4506L62.9998 33.1514V38.4999C62.9998 38.5038 62.9929 38.8905 62.4011 39.0096C61.6376 39.162 58.1874 39.3985 56.4696 39.501C56.1942 39.5176 55.9843 39.7539 56.0009 40.0293C56.0165 40.2949 56.2371 40.5001 56.4999 40.5001C56.5096 40.5001 56.5194 40.5001 56.5304 40.4989C56.7353 40.4862 61.5762 40.1952 62.5987 39.99C63.7071 39.7674 64 38.9177 64 38.4998V32.9999C64 32.9012 63.9708 32.8044 63.916 32.7224Z" fill="white"/>
<path d="M9.96434 22.8146C9.86181 22.5573 9.56887 22.4328 9.31443 22.5358C4.27688 24.5509 1.27205 27.5211 1.14652 27.6466C1.05275 27.7404 0.999984 27.8674 0.999984 28.0002V30.882L0.0527624 32.7764C0.0181292 32.8458 0 32.9225 0 33.0001V38C0 38.1348 0.0615145 38.841 1.27692 39.4474C2.32279 39.9687 6.01954 40.4435 6.43801 40.4962C6.45901 40.4981 6.48002 40.5001 6.50052 40.5001C6.74908 40.5001 6.96438 40.3146 6.99614 40.0626C7.03027 39.7882 6.83598 39.5381 6.56204 39.5041C5.47316 39.3675 2.48096 38.9308 1.72315 38.5529C1.09376 38.2386 1.00249 37.9689 0.999984 37.9963V33.1184L1.94733 31.2238C1.98184 31.1544 1.99997 31.0778 1.99997 31.0001V28.2145C2.65237 27.6086 5.4439 25.1613 9.68552 23.4645C9.94183 23.362 10.0669 23.0709 9.96434 22.8146Z" fill="white"/>
<path d="M44.5 39.5001H18.5C18.2237 39.5001 18 39.7237 18 40C18 40.2764 18.2237 40.5001 18.5 40.5001H44.5C44.7764 40.5001 45 40.2764 45 40C45 39.7237 44.7764 39.5001 44.5 39.5001Z" fill="white"/>
<path d="M32.4998 29.5002H30.4999C30.2236 29.5002 29.9999 29.7237 29.9999 30.0002C29.9999 30.2765 30.2236 30.5002 30.4999 30.5002H32.4998C32.7763 30.5002 32.9998 30.2765 32.9998 30.0002C32.9998 29.7237 32.7763 29.5002 32.4998 29.5002Z" fill="white"/>
<path d="M21.5 29.5002H19.5001C19.2237 29.5002 19.0001 29.7237 19.0001 30.0002C19.0001 30.2765 19.2237 30.5002 19.5001 30.5002H21.5C21.7763 30.5002 22 30.2765 22 30.0002C22 29.7237 21.7763 29.5002 21.5 29.5002Z" fill="white"/>
<path d="M44.4999 26.5002H20.5C15.8843 26.5002 14.0234 22.9274 13.9468 22.7756C13.8217 22.5295 13.5234 22.4294 13.2754 22.5539C13.0292 22.6779 12.9296 22.9773 13.0527 23.2238C13.1401 23.3986 15.2514 27.5002 20.4999 27.5002H44.4999C44.7764 27.5002 44.9999 27.2765 44.9999 27.0003C44.9999 26.7239 44.7764 26.5002 44.4999 26.5002Z" fill="white"/>
<path d="M9.49999 20.5002C9.22355 20.5002 9 20.7239 9 21.0002V22.0002C9 22.2766 9.22355 22.5002 9.49999 22.5002C9.7763 22.5002 10.0001 22.2765 9.99998 22.0002V21.0002C9.99998 20.7239 9.7763 20.5002 9.49999 20.5002Z" fill="white"/>
<path d="M3.50007 34.5001H0.499992C0.223677 34.5001 0 34.7238 0 35.0001C0 35.2765 0.223677 35.5001 0.499992 35.5001H3.50007C3.77638 35.5001 4.00006 35.2765 4.00006 35.0001C4.00006 34.7238 3.77638 34.5001 3.50007 34.5001Z" fill="white"/>
<path d="M6.96429 28.8145C6.86176 28.5577 6.56882 28.4328 6.31439 28.5358L1.31446 30.5358C1.05815 30.6383 0.933125 30.9294 1.03565 31.1857C1.11379 31.3815 1.30184 31.5001 1.50001 31.5001C1.56202 31.5001 1.62504 31.4889 1.68555 31.4644L6.68547 29.4644C6.94178 29.3619 7.06681 29.0708 6.96429 28.8145Z" fill="white"/>
<path d="M6.59815 28.5099L1.5981 27.5099C1.32516 27.4543 1.06347 27.6315 1.00971 27.902C0.955449 28.173 1.13124 28.4362 1.4018 28.4904L6.40185 29.4904C6.43511 29.4973 6.46837 29.5002 6.5005 29.5002C6.7338 29.5002 6.94285 29.336 6.99024 29.0983C7.04438 28.8273 6.86871 28.5641 6.59815 28.5099Z" fill="white"/>
<path d="M27.9902 25.902L26.9902 20.9019C26.9359 20.631 26.6772 20.4522 26.4018 20.5098C26.1312 20.5641 25.9554 20.8273 26.0097 21.0982L27.0097 26.0982C27.0571 26.3361 27.266 26.5001 27.4994 26.5001C27.5317 26.5001 27.565 26.4972 27.5981 26.4903C27.8685 26.4361 28.0444 26.1729 27.9902 25.902Z" fill="white"/>
<path d="M63.5819 32.5069L57.582 31.5069C57.3123 31.4575 57.0526 31.645 57.0068 31.918C56.9609 32.1905 57.1454 32.4478 57.4179 32.4932L63.4178 33.4932C63.4452 33.4981 63.4734 33.5001 63.5008 33.5001C63.7401 33.5001 63.952 33.3263 63.993 33.0821C64.0389 32.8096 63.8544 32.5522 63.5819 32.5069Z" fill="white"/>
<path d="M57.7234 31.5529L55.7234 30.5529C55.4774 30.4308 55.1766 30.5299 55.0527 30.7765C54.9296 31.0235 55.0291 31.3238 55.2762 31.4474L57.2762 32.4474C57.3484 32.483 57.4246 32.5001 57.4998 32.5001C57.6824 32.5001 57.8592 32.399 57.9471 32.2238C58.0701 31.9767 57.9706 31.6764 57.7234 31.5529Z" fill="white"/>
<path d="M60.1678 30.5002H55.4999C55.2234 30.5002 54.9999 30.7238 54.9999 31.0001C54.9999 31.2765 55.2234 31.5001 55.4999 31.5001H60.1678C60.4442 31.5001 60.6678 31.2765 60.6678 31.0001C60.6678 30.7238 60.4442 30.5002 60.1678 30.5002Z" fill="white"/>
<path d="M50.5301 38.5H50.5193C50.244 38.5 50.0252 38.7237 50.0252 39C50.0252 39.2765 50.2538 39.5001 50.5301 39.5001C50.8055 39.5001 51.0301 39.2765 51.0301 39C51.0301 38.7237 50.8055 38.5 50.5301 38.5Z" fill="white"/>
<path d="M50.4998 33.5002C47.4676 33.5002 44.9999 35.9669 44.9999 39.0001C44.9999 42.0334 47.4676 44.5002 50.4998 44.5002C53.5321 44.5002 55.9999 42.0334 55.9999 39.0001C55.9999 35.9669 53.5321 33.5002 50.4998 33.5002ZM50.4998 43.5001C48.0185 43.5001 45.9999 41.4816 45.9999 39C45.9999 36.5187 48.0184 34.5001 50.4998 34.5001C52.9814 34.5001 54.9999 36.5187 54.9999 39C54.9999 41.4815 52.9814 43.5001 50.4998 43.5001Z" fill="white"/>
<path d="M50.4998 35.5001C50.2235 35.5001 49.9998 35.7237 49.9998 36.0001V37C49.9998 37.2765 50.2235 37.5 50.4998 37.5C50.7762 37.5 50.9999 37.2765 50.9999 37V36.0001C50.9999 35.7237 50.7762 35.5001 50.4998 35.5001Z" fill="white"/>
<path d="M50.4998 40.5001C50.2235 40.5001 49.9998 40.7237 49.9998 41V42C49.9998 42.2764 50.2235 42.5001 50.4998 42.5001C50.7762 42.5001 50.9999 42.2764 50.9999 42V41C50.9999 40.7237 50.7762 40.5001 50.4998 40.5001Z" fill="white"/>
<path d="M48.4998 38.5H47.4999C47.2236 38.5 46.9999 38.7237 46.9999 39C46.9999 39.2765 47.2236 39.5001 47.4999 39.5001H48.4998C48.7763 39.5001 48.9998 39.2765 48.9998 39C48.9998 38.7237 48.7763 38.5 48.4998 38.5Z" fill="white"/>
<path d="M53.4998 38.5H52.4998C52.2235 38.5 51.9999 38.7237 51.9999 39C51.9999 39.2765 52.2235 39.5001 52.4998 39.5001H53.4998C53.7762 39.5001 53.9999 39.2765 53.9999 39C53.9999 38.7237 53.7762 38.5 53.4998 38.5Z" fill="white"/>
<path d="M49.4392 37.2326L48.7323 36.5256C48.537 36.3303 48.2205 36.3303 48.0253 36.5256C47.83 36.7209 47.83 37.0373 48.0253 37.2326L48.7323 37.9395C48.8299 38.0372 48.9578 38.086 49.0857 38.086C49.2138 38.086 49.3415 38.0372 49.4392 37.9395C49.6345 37.7443 49.6345 37.4279 49.4392 37.2326Z" fill="white"/>
<path d="M52.9746 40.7677L52.2675 40.0606C52.0722 39.8653 51.7558 39.8653 51.5605 40.0606C51.3652 40.2559 51.3652 40.5724 51.5605 40.7677L52.2675 41.4747C52.3652 41.5724 52.4931 41.6211 52.621 41.6211C52.7489 41.6211 52.8769 41.5725 52.9746 41.4747C53.1699 41.2794 53.1699 40.963 52.9746 40.7677Z" fill="white"/>
<path d="M49.4392 40.0606C49.244 39.8653 48.9276 39.8653 48.7323 40.0606L48.0253 40.7677C47.83 40.9628 47.83 41.2794 48.0253 41.4747C48.1229 41.5724 48.2509 41.6211 48.3787 41.6211C48.5066 41.6211 48.6346 41.5725 48.7323 41.4747L49.4392 40.7677C49.6345 40.5724 49.6345 40.2559 49.4392 40.0606Z" fill="white"/>
<path d="M52.9744 36.5256C52.7792 36.3303 52.4627 36.3303 52.2674 36.5256L51.5604 37.2326C51.3651 37.4279 51.3651 37.7442 51.5604 37.9395C51.658 38.0372 51.786 38.086 51.9139 38.086C52.0418 38.086 52.1698 38.0372 52.2674 37.9395L52.9744 37.2326C53.1697 37.0373 53.1697 36.7209 52.9744 36.5256Z" fill="white"/>
<path d="M12.5298 38.5H12.5201C12.2438 38.5 12.025 38.7237 12.025 39C12.025 39.2765 12.2539 39.5001 12.5298 39.5001C12.8061 39.5001 13.0298 39.2765 13.0298 39C13.0298 38.7237 12.8061 38.5 12.5298 38.5Z" fill="white"/>
<path d="M12.5001 33.5002C9.46787 33.5002 7.00104 35.9669 7.00104 39.0001C7.00104 42.0334 9.46787 44.5002 12.5001 44.5002C15.5327 44.5002 18 42.0334 18 39.0001C18 35.9669 15.5328 33.5002 12.5001 33.5002ZM12.5001 43.5001C10.0192 43.5001 8.00115 41.4816 8.00115 39C8.00115 36.5187 10.0191 34.5001 12.5001 34.5001C14.9814 34.5001 17 36.5187 17 39C17 41.4815 14.9815 43.5001 12.5001 43.5001Z" fill="white"/>
<path d="M12.5001 35.5001C12.2237 35.5001 12.0001 35.7237 12.0001 36.0001V37C12.0001 37.2765 12.2237 37.5 12.5001 37.5C12.7764 37.5 13 37.2765 13 37V36.0001C13 35.7237 12.7764 35.5001 12.5001 35.5001Z" fill="white"/>
<path d="M12.5001 40.5001C12.2237 40.5001 12.0001 40.7237 12.0001 41V42C12.0001 42.2764 12.2237 42.5001 12.5001 42.5001C12.7764 42.5001 13 42.2764 13 42V41C13 40.7237 12.7764 40.5001 12.5001 40.5001Z" fill="white"/>
<path d="M10.5001 38.5H9.50109C9.22465 38.5 9.0011 38.7237 9.0011 39C9.0011 39.2765 9.22465 39.5001 9.50109 39.5001H10.5001C10.7763 39.5001 11.0001 39.2765 11.0001 39C11.0001 38.7237 10.7764 38.5 10.5001 38.5Z" fill="white"/>
<path d="M15.5 38.5H14.5001C14.2237 38.5 14.0001 38.7237 14.0001 39C14.0001 39.2765 14.2237 39.5001 14.5001 39.5001H15.5C15.7764 39.5001 16 39.2765 16 39C16 38.7237 15.7764 38.5 15.5 38.5Z" fill="white"/>
<path d="M11.4394 37.2326L10.7324 36.5256C10.5371 36.3303 10.2206 36.3303 10.0253 36.5256C9.83002 36.7209 9.83002 37.0373 10.0253 37.2326L10.7324 37.9395C10.83 38.0372 10.958 38.086 11.0859 38.086C11.2138 38.086 11.3417 38.0372 11.4394 37.9395C11.6347 37.7443 11.6347 37.4279 11.4394 37.2326Z" fill="white"/>
<path d="M14.9745 40.7677L14.2675 40.0606C14.0722 39.8653 13.7557 39.8653 13.5604 40.0606C13.3651 40.2559 13.3651 40.5724 13.5604 40.7677L14.2675 41.4747C14.3651 41.5724 14.4931 41.6211 14.621 41.6211C14.7489 41.6211 14.8768 41.5725 14.9745 41.4747C15.1698 41.2794 15.1698 40.963 14.9745 40.7677Z" fill="white"/>
<path d="M11.4396 40.0606C11.2443 39.8653 10.9278 39.8653 10.7325 40.0606L10.0255 40.7677C9.8302 40.9628 9.8302 41.2794 10.0255 41.4747C10.1231 41.5724 10.2511 41.6211 10.379 41.6211C10.5069 41.6211 10.6348 41.5725 10.7325 41.4747L11.4396 40.7677C11.6349 40.5724 11.6349 40.2559 11.4396 40.0606Z" fill="white"/>
<path d="M14.9746 36.5256C14.7793 36.3303 14.4629 36.3303 14.2676 36.5256L13.5605 37.2326C13.3652 37.4279 13.3652 37.7442 13.5605 37.9395C13.6582 38.0372 13.7861 38.086 13.914 38.086C14.042 38.086 14.1699 38.0372 14.2676 37.9395L14.9746 37.2326C15.1699 37.0373 15.1699 36.7209 14.9746 36.5256Z" fill="white"/>
</g>
<defs>
<clipPath id="clip0">
<rect width="64" height="64" fill="white"/>
</clipPath>
</defs>
</svg>
