<svg width="88" height="84" viewBox="0 0 88 84" fill="none" xmlns="http://www.w3.org/2000/svg">
<g clip-path="url(#clip0)">
<path d="M84.338 55.2229L78.059 54.3708C77.6598 54.3139 77.3167 54.1161 77.0894 53.8132L72.41 47.5576C71.0883 45.7748 68.9253 44.7097 66.6244 44.7097H61.0212C67.208 40.8661 70.9677 34.3506 70.9677 27.1781V26.3029L77.6487 19.9257L75.6416 18.0098L70.9677 22.4713V21.1541L65.9702 22.7385C63.8994 23.4074 61.4294 22.8497 59.8797 21.3698L59.6129 21.1164V0H17.8639L0 17.0519V84H59.6129V70.4516H62.5951C63.2548 73.539 66.1206 75.871 69.5484 75.871C72.9762 75.871 75.8419 73.539 76.5017 70.4516H83.7419C86.0893 70.4516 88 68.6277 88 66.3871V59.2471C88 57.2228 86.4656 55.5305 84.338 55.2229ZM66.8732 25.3086L68.129 24.9104V25.1809L58.1935 34.6648L54.939 31.5582L52.932 33.474L58.1935 38.4965L68.0112 29.1251C67.3556 35.0604 63.7407 40.2873 58.1935 43.1815C52.0462 39.9744 48.2581 33.9034 48.2581 27.1781V24.9104L49.5055 25.306C52.4468 26.2579 55.8871 25.5633 58.1935 23.5794C60.5 25.562 63.959 26.25 66.8732 25.3086ZM17.0323 4.6255V16.2581H4.84577L17.0323 4.6255ZM56.7742 81.2903H2.83871V18.9677H19.871V2.70968H56.7742V21.1164L56.5088 21.3698C54.9591 22.8497 52.5106 23.4146 50.4086 22.7352L45.4194 21.1541V27.1768C45.4194 34.3493 49.1791 40.8648 55.3659 44.7084H48.457C46.075 44.7084 43.8662 45.8356 42.5481 47.7257L39.1272 52.629C38.9429 52.893 38.6705 53.0855 38.3538 53.1787L27.1625 56.3786C25.3481 56.9098 24.129 58.4751 24.129 60.2771V66.3871C24.129 68.6277 26.0398 70.4516 28.3871 70.4516H35.6273C36.2871 73.539 39.1528 75.871 42.5806 75.871C46.0084 75.871 48.8742 73.539 49.534 70.4516H56.7742V81.2903ZM38.3226 69.0968C38.3226 66.8561 40.2333 65.0323 42.5806 65.0323C44.928 65.0323 46.8387 66.8561 46.8387 69.0968C46.8387 71.3374 44.928 73.1613 42.5806 73.1613C40.2333 73.1613 38.3226 71.3374 38.3226 69.0968ZM69.5484 73.1613C67.201 73.1613 65.2903 71.3374 65.2903 69.0968C65.2903 66.8561 67.201 65.0323 69.5484 65.0323C71.8957 65.0323 73.8064 66.8561 73.8064 69.0968C73.8064 71.3374 71.8957 73.1613 69.5484 73.1613ZM85.1613 66.3871C85.1613 67.1346 84.5237 67.7419 83.7419 67.7419H76.5017C75.8419 64.6545 72.9762 62.3226 69.5484 62.3226C66.1206 62.3226 63.2548 64.6545 62.5951 67.7419H49.534C48.8742 64.6545 46.0084 62.3226 42.5806 62.3226C39.1528 62.3226 36.2871 64.6545 35.6273 67.7419H28.3871C27.6053 67.7419 26.9677 67.1346 26.9677 66.3871V60.2771C26.9677 59.6751 27.3808 59.1511 27.9851 58.9732L39.1826 55.772C40.1425 55.4875 40.9402 54.9212 41.4905 54.1314L44.9114 49.228C45.7021 48.0955 47.0272 47.4194 48.457 47.4194H66.6244C68.0057 47.4194 69.303 48.0564 70.0966 49.1281L74.7774 55.3843C75.4441 56.2801 76.4892 56.8867 77.6515 57.0521L83.9249 57.9028C84.6415 58.0073 85.1613 58.5723 85.1613 59.2471V66.3871Z" fill="#FE0101"/>
<path d="M41.1613 67.7419H44V70.4516H41.1613V67.7419Z" fill="#FE0101"/>
<path d="M68.129 67.7419H70.9677V70.4516H68.129V67.7419Z" fill="#FE0101"/>
<path d="M47.3807 50.129L43.1226 58.2581H71.8451L67.5871 50.129H47.3807ZM47.7161 55.5484L49.1355 52.8387H65.8323L67.2516 55.5484H47.7161Z" fill="#FE0101"/>
<path d="M53.9355 5.41931H22.7097V18.9677H53.9355V5.41931ZM51.0968 16.258H25.5484V8.12899H51.0968V16.258Z" fill="#FE0101"/>
<path d="M36.9032 10.8387H39.7419V13.5484H36.9032V10.8387Z" fill="#FE0101"/>
<path d="M42.5806 10.8387H45.4193V13.5484H42.5806V10.8387Z" fill="#FE0101"/>
<path d="M31.2258 10.8387H34.0645V13.5484H31.2258V10.8387Z" fill="#FE0101"/>
<path d="M5.67741 21.6774H38.3226V24.3871H5.67741V21.6774Z" fill="#FE0101"/>
<path d="M5.67741 32.5161H38.3226V35.2258H5.67741V32.5161Z" fill="#FE0101"/>
<path d="M25.5484 27.0968H38.3226V29.8065H25.5484V27.0968Z" fill="#FE0101"/>
<path d="M5.67741 27.0968H22.7097V29.8065H5.67741V27.0968Z" fill="#FE0101"/>
<path d="M5.67741 37.9354H38.3226V40.6451H5.67741V37.9354Z" fill="#FE0101"/>
<path d="M5.67741 43.3549H38.3226V46.0645H5.67741V43.3549Z" fill="#FE0101"/>
<path d="M27.2034 73.9744C26.5221 72.4866 25.5893 70.4517 23.4193 70.4517C21.2467 70.4517 20.3138 72.4905 19.6339 73.9797C19.3983 74.497 18.7697 75.871 18.4655 75.871C18.1425 75.871 17.5292 74.5367 17.2665 73.9664C16.5852 72.4826 15.651 70.4517 13.4839 70.4517C11.3139 70.4517 10.3811 72.4866 9.69984 73.9744C9.43857 74.542 8.83007 75.871 8.51612 75.871H5.67741V78.5807H8.51612C10.686 78.5807 11.6189 76.5458 12.3001 75.058C12.5614 74.4904 13.1699 73.1613 13.4839 73.1613C13.7978 73.1613 14.4063 74.4877 14.6662 75.054C15.3502 76.5431 16.2886 78.5807 18.4655 78.5807C20.6278 78.5807 21.5571 76.5484 22.2356 75.0633C22.4955 74.4943 23.104 73.1613 23.4193 73.1613C23.7333 73.1613 24.3418 74.4904 24.6031 75.058C25.2843 76.5458 26.2172 78.5807 28.3871 78.5807H31.2258V75.871H28.3871C28.0731 75.871 27.4646 74.542 27.2034 73.9744Z" fill="#FE0101"/>
<path d="M34.0645 75.871H36.9032V78.5807H34.0645V75.871Z" fill="#FE0101"/>
</g>
<defs>
<clipPath id="clip0">
<rect width="88" height="84" fill="white"/>
</clipPath>
</defs>
</svg>
