<svg width="96" height="96" viewBox="0 0 96 96" fill="none" xmlns="http://www.w3.org/2000/svg">
<g clip-path="url(#clip0)">
<path d="M94.591 25.5499C92.0529 25.5499 89.9882 23.4853 89.9882 20.9471C89.9882 20.1688 89.3575 19.5381 88.5791 19.5381C87.8008 19.5381 87.1701 20.1688 87.1701 20.9471C87.1701 23.4851 85.1055 25.5499 82.5673 25.5499C81.789 25.5499 81.1583 26.1806 81.1583 26.959C81.1583 27.7373 81.789 28.368 82.5673 28.368C85.1053 28.368 87.1701 30.4328 87.1701 32.9708C87.1701 33.7491 87.8008 34.3798 88.5791 34.3798C89.3575 34.3798 89.9882 33.7491 89.9882 32.9708C89.9882 30.4328 92.0528 28.368 94.591 28.368C95.3693 28.368 96 27.7373 96 26.959C96 26.1806 95.3693 25.5499 94.591 25.5499ZM88.5793 28.6247C88.1158 27.9855 87.5526 27.4225 86.9136 26.959C87.5528 26.4955 88.116 25.9322 88.5793 25.2932C89.0428 25.9324 89.6061 26.4955 90.2451 26.959C89.6059 27.4225 89.0428 27.9857 88.5793 28.6247Z" fill="#FE0101"/>
<path d="M13.4325 25.5499C10.8947 25.5499 8.82975 23.4853 8.82975 20.9471C8.82975 20.1688 8.19882 19.5381 7.42069 19.5381C6.64257 19.5381 6.01163 20.1688 6.01163 20.9471C6.01163 23.4851 3.94669 25.5499 1.40888 25.5499C0.630754 25.5499 -0.000183105 26.1806 -0.000183105 26.959C-0.000183105 27.7373 0.630754 28.368 1.40888 28.368C3.94669 28.368 6.01163 30.4328 6.01163 32.9708C6.01163 33.7491 6.64257 34.3798 7.42069 34.3798C8.19882 34.3798 8.82975 33.7491 8.82975 32.9708C8.82975 30.4328 10.8947 28.368 13.4325 28.368C14.2106 28.368 14.8416 27.7373 14.8416 26.959C14.8416 26.1806 14.2106 25.5499 13.4325 25.5499ZM7.42069 28.6247C6.95719 27.9855 6.39413 27.4225 5.75494 26.959C6.39432 26.4955 6.95738 25.9322 7.42069 25.2932C7.88419 25.9324 8.44725 26.4955 9.08644 26.959C8.44744 27.4225 7.88419 27.9857 7.42069 28.6247Z" fill="#FE0101"/>
<path d="M55.5146 7.51463C52.1479 7.51463 49.4089 4.77581 49.4089 1.40888C49.409 0.63075 48.7783 0 48 0C47.2219 0 46.5909 0.63075 46.5909 1.40906C46.5909 4.77581 43.8517 7.51481 40.4852 7.51481C39.707 7.51481 39.0761 8.14556 39.0761 8.92388C39.0761 9.70219 39.707 10.3329 40.4852 10.3329C43.8517 10.3329 46.5909 13.0719 46.5909 16.4387C46.5909 17.217 47.2219 17.8478 48 17.8478C48.7783 17.8478 49.409 17.217 49.409 16.4387C49.409 13.0719 52.148 10.3329 55.5148 10.3329C56.2931 10.3329 56.9239 9.70219 56.9239 8.92388C56.9239 8.14556 56.2929 7.51463 55.5146 7.51463ZM48 11.6301C47.3034 10.5456 46.3781 9.62025 45.2934 8.92369C46.3781 8.22713 47.3034 7.30181 48 6.21731C48.6965 7.30181 49.6219 8.22713 50.7064 8.92369C49.6219 9.62025 48.6965 10.5456 48 11.6301Z" fill="#FE0101"/>
<path d="M77.3355 47.5311L71.8545 32.0016C71.4444 30.8395 70.3408 30.0587 69.1086 30.0587H26.5157C25.2832 30.0587 24.1798 30.8395 23.7697 32.0014L18.2887 47.5311C17.9704 48.4331 18.6622 49.4091 19.6174 49.4091H76.0069C76.464 49.4091 76.8928 49.1871 77.1568 48.814C77.421 48.4406 77.4877 47.9623 77.3355 47.5311ZM21.6088 46.591L26.427 32.9393C26.4397 32.9031 26.477 32.8767 26.5155 32.8767H69.1086C69.147 32.8767 69.1843 32.9031 69.1972 32.9395L74.0154 46.591H21.6088Z" fill="#FE0101"/>
<path d="M74.865 66.1292C69.861 66.1292 65.9413 68.7287 65.9413 72.047C65.9413 75.3654 69.861 77.9649 74.865 77.9649C79.869 77.9649 83.7887 75.3654 83.7887 72.047C83.7887 68.7287 79.869 66.1292 74.865 66.1292ZM74.865 75.1468C71.3703 75.1468 68.7592 73.5103 68.7592 72.047C68.7592 70.5838 71.3702 68.9473 74.865 68.9473C78.3596 68.9473 80.9707 70.5838 80.9707 72.047C80.9707 73.5103 78.3596 75.1468 74.865 75.1468Z" fill="#FE0101"/>
<path d="M20.7593 66.1292C15.7553 66.1292 11.8356 68.7287 11.8356 72.047C11.8356 75.3654 15.7553 77.9649 20.7593 77.9649C25.7633 77.9649 29.6829 75.3654 29.6829 72.047C29.6829 68.7287 25.7633 66.1292 20.7593 66.1292ZM20.7593 75.1468C17.2648 75.1468 14.6535 73.5103 14.6535 72.047C14.6535 70.5838 17.2646 68.9473 20.7593 68.9473C24.2539 68.9473 26.865 70.5838 26.865 72.047C26.865 73.5103 24.2539 75.1468 20.7593 75.1468Z" fill="#FE0101"/>
<path d="M92.9003 45.0882H85.3856C84.7391 45.0882 84.1755 45.5282 84.0188 46.1554L83.0289 50.1145L76.1063 30.5009C75.0611 27.5397 72.249 25.5499 69.1086 25.5499H26.5157C23.3753 25.5499 20.5631 27.5397 19.518 30.501L12.5955 50.1147L11.6057 46.1554C11.4488 45.5281 10.8851 45.0882 10.2388 45.0882H2.724C1.94588 45.0882 1.31494 45.7189 1.31494 46.4972V52.5091C1.31494 53.2874 1.94588 53.9181 2.724 53.9181H10.5066L5.703 60.643C4.79888 61.9088 4.32094 63.4006 4.32094 64.9562V82.5677C4.32094 85.008 5.50538 87.1767 7.32919 88.5299C7.32863 88.5464 7.32675 88.5627 7.32675 88.5794V93.0882C7.32675 94.6939 8.63307 96.0001 10.2386 96.0001H19.2563C20.862 96.0001 22.1681 94.6937 22.1681 93.0882V89.9884H73.4558V93.0882C73.4558 94.6939 74.7621 96.0001 76.3676 96.0001H85.3853C86.991 96.0001 88.2971 94.6937 88.2971 93.0882V88.5794C88.2971 88.5627 88.2952 88.5464 88.2947 88.5299C90.1185 87.1767 91.3029 85.008 91.3029 82.5677V64.9562C91.3029 63.4004 90.8248 61.9086 89.9207 60.643L85.1171 53.9181H92.8999C93.6782 53.9181 94.3089 53.2874 94.3089 52.5091V46.4972C94.3091 45.7187 93.6786 45.0882 92.9003 45.0882ZM4.13307 51.0998V47.9061H9.13857L9.93694 51.0998H4.13307ZM19.3504 93.0882C19.3504 93.1399 19.3084 93.1821 19.2564 93.1821H10.2388C10.1871 93.1821 10.1449 93.1399 10.1449 93.0882V89.9884H11.7418H19.3504V93.0882ZM85.4794 93.0882C85.4794 93.1399 85.4372 93.1821 85.3854 93.1821H76.3678C76.3161 93.1821 76.2739 93.1399 76.2739 93.0882V89.9884H83.8824H85.4794V93.0882ZM83.8826 87.1703H11.7416C9.69507 87.1703 7.95694 85.8274 7.36032 83.9766H88.2637C87.6671 85.8274 85.9292 87.1703 83.8826 87.1703ZM59.9295 71.9532V75.1469H35.6948V71.9532H59.9295ZM35.9162 69.1351C36.5128 67.2842 38.2508 65.9414 40.2975 65.9414H55.3269C57.3735 65.9414 59.1116 67.2842 59.7083 69.1351H35.9162ZM59.9295 77.9648V81.1585H35.6948V77.9648H59.9295ZM87.6281 62.2808C88.1889 63.0659 88.4854 63.991 88.4854 64.9561V81.1587H62.7476V70.5441C62.7476 66.4523 59.4186 63.1234 55.3269 63.1234H40.2975C36.2057 63.1234 32.8768 66.4525 32.8768 70.5441V81.1587H7.13888V64.9561C7.13888 63.991 7.43532 63.0659 7.99613 62.2808L13.9697 53.9179H65.8472C66.6255 53.9179 67.2563 53.2872 67.2563 52.5089C67.2563 51.7306 66.6255 51.0998 65.8472 51.0998H15.2361L22.1753 31.4387C22.8236 29.6022 24.5678 28.3679 26.5157 28.3679H69.1087C71.0565 28.3679 72.8006 29.602 73.4492 31.4387L80.3882 51.0998H71.859C71.0807 51.0998 70.4499 51.7306 70.4499 52.5089C70.4499 53.2872 71.0807 53.9179 71.859 53.9179H81.6546L87.6281 62.2808ZM91.4912 51.0998H85.6871L86.4855 47.9061H91.4912V51.0998Z" fill="#FE0101"/>
<path d="M25.2681 61.6204H16.2504C15.4723 61.6204 14.8414 62.2511 14.8414 63.0294C14.8414 63.8077 15.4723 64.4385 16.2504 64.4385H25.2681C26.0462 64.4385 26.6771 63.8077 26.6771 63.0294C26.6771 62.2511 26.0462 61.6204 25.2681 61.6204Z" fill="#FE0101"/>
<path d="M79.3738 61.6204H70.3562C69.5779 61.6204 68.9471 62.2511 68.9471 63.0294C68.9471 63.8077 69.5779 64.4385 70.3562 64.4385H79.3738C80.1521 64.4385 80.7829 63.8077 80.7829 63.0294C80.7829 62.2511 80.1521 61.6204 79.3738 61.6204Z" fill="#FE0101"/>
</g>
<defs>
<clipPath id="clip0">
<rect width="96" height="96" fill="white"/>
</clipPath>
</defs>
</svg>
