<svg width="95" height="91" viewBox="0 0 95 91" fill="none" xmlns="http://www.w3.org/2000/svg">
<path d="M52.1756 6.06653H42.6758C40.9268 6.06653 39.5092 7.42453 39.5092 9.09982V12.1331C39.5092 13.8084 40.9268 15.1664 42.6758 15.1664H52.1756C53.9246 15.1664 55.3422 13.8084 55.3422 12.1331V9.09982C55.3422 7.42453 53.9246 6.06653 52.1756 6.06653ZM42.6758 12.1331V9.09982H52.1756V12.1331H42.6758Z" fill="#FE0101"/>
<path d="M56.9259 0H37.9255C35.3025 0 33.1759 2.037 33.1759 4.55028V18.4899C24.9263 19.9583 18.9396 26.8462 18.9258 34.8831V68.25C18.9323 73.8875 21.9098 79.1404 26.8427 82.2153V84.9334C26.8427 88.284 29.6781 91 33.1759 91H61.6755C65.1733 91 68.0095 88.284 68.0095 84.9334V82.2153C72.9417 79.1404 75.9198 73.8875 75.9256 68.25V34.8831C75.9126 26.8462 69.9251 19.9583 61.6755 18.4899V4.55028C61.6755 2.037 59.549 0 56.9259 0ZM36.3425 4.55028C36.3425 3.71229 37.0514 3.03329 37.9255 3.03329H56.9259C57.8 3.03329 58.5089 3.71229 58.5089 4.55028V18.1997H36.3425V4.55028ZM64.8421 83.7941V84.9334C64.8421 86.6087 63.4244 87.9667 61.6755 87.9667H33.1759C31.427 87.9667 30.0093 86.6087 30.0093 84.9334V83.7941C30.2369 83.8795 30.4732 83.9462 30.7058 84.0191C30.9385 84.0913 31.1269 84.1628 31.3393 84.2253C31.656 84.3127 31.9612 84.3766 32.275 84.4558C32.5091 84.5099 32.7389 84.5696 32.9744 84.6071C33.3122 84.671 33.6543 84.712 33.9942 84.7592C34.2095 84.7876 34.4218 84.8258 34.64 84.8466C35.2039 84.8987 35.7707 84.9286 36.3389 84.9286H58.5089C59.0778 84.9286 59.6446 84.8987 60.2078 84.8466C60.4267 84.8258 60.639 84.7876 60.8543 84.7592C61.1942 84.7147 61.5363 84.6738 61.8734 84.6071C62.1096 84.562 62.3394 84.5023 62.5735 84.4558C62.8902 84.3843 63.207 84.3127 63.5092 84.2253C63.7245 84.1628 63.9354 84.0885 64.1427 84.0191C64.35 83.9489 64.6145 83.8795 64.8421 83.7941ZM72.759 34.8831V68.25C72.7286 73.7369 69.2996 78.6829 64.0318 80.8386C63.91 80.8872 63.7817 80.9233 63.66 80.9684C63.2541 81.1205 62.8446 81.2552 62.4264 81.369C62.2524 81.4162 62.0763 81.4572 61.8987 81.4995C61.503 81.5919 61.1029 81.6683 60.697 81.7287C60.539 81.7516 60.3803 81.78 60.2114 81.8002C59.6461 81.8654 59.0778 81.8988 58.5089 81.9001H36.3425C35.7736 81.8967 35.2053 81.8613 34.64 81.7939C34.482 81.7738 34.316 81.7453 34.1544 81.7224C33.7492 81.662 33.3484 81.5856 32.9527 81.4933C32.7751 81.4509 32.5997 81.41 32.425 81.3628C32.0076 81.2496 31.5973 81.1128 31.1922 80.9629C31.0697 80.917 30.9414 80.8809 30.8196 80.8323C25.554 78.678 22.1257 73.7348 22.0924 68.25V34.8831C22.1018 27.3482 28.4764 21.2427 36.3425 21.233H58.5089C66.375 21.2427 72.7496 27.3482 72.759 34.8831Z" fill="#FE0101"/>
<path d="M52.4213 46.2262C49.5715 44.0337 47.1093 42.1314 47.1093 39.8563C47.2333 39.0572 47.7327 38.3552 48.4647 37.9533C49.125 37.5145 49.3866 36.7001 49.0975 35.9815C48.8075 35.2539 48.0385 34.8089 47.2311 34.9012C41.5313 35.5538 38.8692 42.021 38.8692 46.1853C38.9938 48.2015 39.702 50.1447 40.9138 51.7971C41.4676 52.5219 41.8503 53.353 42.0358 54.2333C42.0358 55.5983 41.5756 55.5983 41.0863 55.5983C40.3796 55.5983 40.0238 55.4566 39.9238 55.3233C39.7498 54.7832 39.7933 54.2 40.0455 53.6883C40.2934 52.9961 40.018 52.231 39.378 51.8318C38.73 51.4597 37.9067 51.5236 37.3304 51.9915C34.8169 54.2097 33.3231 57.2916 33.1759 60.5623C33.1759 67.2746 38.5024 71.2833 47.4261 71.2833C56.3497 71.2833 61.6755 67.2746 61.6755 60.5623C61.6755 53.3516 56.544 49.4012 52.4213 46.2262ZM47.4261 68.25C43.2868 68.25 36.3426 67.2503 36.3426 60.5623C36.3592 59.3203 36.6847 58.1004 37.2928 57.0042C37.3116 57.0312 37.329 57.0569 37.3493 57.0812C38.2437 58.1699 39.652 58.751 41.0921 58.6267C43.0824 58.6267 45.2089 57.4742 45.2089 54.2285C45.0698 52.7906 44.5291 51.4153 43.6434 50.2475C42.7388 49.0533 42.1866 47.6481 42.0423 46.1797C42.0873 44.0837 42.7512 42.0425 43.9565 40.293C44.1942 43.7817 47.2297 46.1235 50.4376 48.5909C54.4051 51.6471 58.5125 54.8096 58.5125 60.5623C58.5089 67.2503 51.5646 68.25 47.4261 68.25Z" fill="#FE0101"/>
</svg>
