<svg width="17" height="17" viewBox="0 0 17 17" fill="none" xmlns="http://www.w3.org/2000/svg">
<path d="M11.3333 1.41669H5.66667C5.29094 1.41669 4.93061 1.56594 4.66493 1.83162C4.39926 2.0973 4.25 2.45763 4.25 2.83335V14.1667C4.25 14.5424 4.39926 14.9027 4.66493 15.1684C4.93061 15.4341 5.29094 15.5834 5.66667 15.5834H11.3333C11.7091 15.5834 12.0694 15.4341 12.3351 15.1684C12.6007 14.9027 12.75 14.5424 12.75 14.1667V2.83335C12.75 2.45763 12.6007 2.0973 12.3351 1.83162C12.0694 1.56594 11.7091 1.41669 11.3333 1.41669ZM9.20833 14.875H7.79167V14.1667H9.20833V14.875ZM11.3333 13.4584H5.66667V3.54169H11.3333V13.4584Z" fill="#FE0101"/>
</svg>
