<svg width="40" height="40" viewBox="0 0 40 40" fill="none" xmlns="http://www.w3.org/2000/svg">
<path d="M39.8712 11.8062C39.8488 10.1267 39.5338 8.46386 38.9405 6.89212C38.4259 5.56637 37.64 4.36234 36.633 3.35698C35.6259 2.35162 34.4199 1.56703 33.092 1.05333C31.5378 0.470911 29.896 0.155985 28.2363 0.121965C26.0995 0.0266106 25.422 0 19.9978 0C14.5735 0 13.8783 1.48698e-07 11.757 0.121965C10.0981 0.156235 8.45702 0.471157 6.9036 1.05333C5.57543 1.56667 4.36922 2.35114 3.36213 3.35654C2.35505 4.36195 1.56928 5.56616 1.05509 6.89212C0.470526 8.44247 0.15576 10.0812 0.124389 11.7374C0.028876 13.8729 0 14.5493 0 19.9645C0 25.3798 -1.65495e-08 26.0716 0.124389 28.1916C0.157708 29.8503 0.470902 31.4869 1.05509 33.0414C1.57014 34.3669 2.3565 35.5706 3.36392 36.5756C4.37134 37.5806 5.57766 38.3647 6.90582 38.8779C8.45498 39.4838 10.0963 39.8212 11.7592 39.8758C13.8983 39.9712 14.5757 40 20 40C25.4243 40 26.1195 40 28.2408 39.8758C29.9004 39.8432 31.5423 39.529 33.0964 38.9467C34.424 38.4324 35.6297 37.6476 36.6367 36.6423C37.6437 35.637 38.4298 34.4333 38.9449 33.1079C39.5291 31.5556 39.8423 29.9191 39.8756 28.2581C39.9711 26.1249 40 25.4485 40 20.031C39.9956 14.6158 39.9956 13.9284 39.8712 11.8062ZM19.9845 30.2051C14.3114 30.2051 9.71568 25.617 9.71568 19.9534C9.71568 14.2898 14.3114 9.70174 19.9845 9.70174C22.7079 9.70174 25.3198 10.7818 27.2456 12.7044C29.1713 14.627 30.2532 17.2345 30.2532 19.9534C30.2532 22.6724 29.1713 25.2799 27.2456 27.2025C25.3198 29.125 22.7079 30.2051 19.9845 30.2051ZM30.6619 11.7131C29.3359 11.7131 28.2674 10.6442 28.2674 9.32254C28.2674 9.00876 28.3293 8.69805 28.4496 8.40816C28.5699 8.11826 28.7462 7.85486 28.9684 7.63298C29.1907 7.4111 29.4545 7.2351 29.7449 7.11502C30.0353 6.99495 30.3465 6.93314 30.6608 6.93314C30.9751 6.93314 31.2863 6.99495 31.5767 7.11502C31.8671 7.2351 32.131 7.4111 32.3532 7.63298C32.5754 7.85486 32.7517 8.11826 32.872 8.40816C32.9923 8.69805 33.0542 9.00876 33.0542 9.32254C33.0542 10.6442 31.9836 11.7131 30.6619 11.7131Z" fill="#0194FE" fill-opacity="0.62"/>
<path d="M20 27C23.866 27 27 23.866 27 20C27 16.134 23.866 13 20 13C16.134 13 13 16.134 13 20C13 23.866 16.134 27 20 27Z" fill="#0194FE" fill-opacity="0.62"/>
</svg>
