<svg width="42" height="42" viewBox="0 0 42 42" fill="none" xmlns="http://www.w3.org/2000/svg">
<path d="M41.4179 24.4023C40.8294 23.58 39.849 23.0275 38.8594 22.9602C38.0516 22.9058 37.3197 23.1786 36.7989 23.7298C36.6847 23.8507 36.5614 23.9835 36.4309 24.1258C35.8548 23.598 35.0999 23.2584 34.3388 23.2067C33.5307 23.1526 32.799 23.4251 32.2783 23.9763C31.1449 25.1761 29.1379 27.5199 27.5618 29.3858C27.3562 29.2643 27.1363 29.164 26.9036 29.0888C26.1502 28.7643 15.7648 24.329 11.1613 24.329C3.72505 24.329 0.308761 28.326 0.16701 28.496C-0.0504561 28.757 -0.0151825 29.1442 0.245104 29.3624C0.505473 29.5806 0.893975 29.5464 1.113 29.2867C1.12087 29.2775 1.91896 28.343 3.5491 27.4221C5.05159 26.5736 7.59195 25.5618 11.1612 25.5618C15.5839 25.5618 26.3349 30.1861 26.443 30.2328C26.6406 30.318 26.8445 30.3832 27.0249 30.5037C27.1953 30.6174 27.3478 30.7577 27.4756 30.9178C27.7238 31.2287 27.8793 31.6135 27.9119 32.0103C27.9806 32.8418 27.5139 33.6452 26.7606 34.0003C26.2856 34.2242 25.7834 34.2309 25.2843 34.0942L18.558 32.2417C18.2342 32.1524 17.8891 32.3486 17.8 32.6723C17.7108 32.9961 17.9068 33.3411 18.2306 33.4302L24.9475 35.2802C25.7636 35.532 26.6555 35.4496 27.4116 35.0531C28.1797 34.6504 28.745 33.9725 29.0032 33.1448C29.0875 32.8747 29.1351 32.5992 29.148 32.3238L30.952 32.1338C31.1117 32.117 31.2585 32.0386 31.3613 31.9152C31.4058 31.8618 35.8293 26.5513 37.6952 24.5763C38.4707 23.755 39.8554 24.3372 40.4155 25.1196C41.2766 26.3228 40.2065 27.6362 39.858 28.0101C38.1455 29.8475 35.0052 33.633 34.4408 34.3154L21.66 40.7057L15.0842 37.937C14.7746 37.8066 14.4072 37.9562 14.2769 38.2659C14.1465 38.5755 14.2962 38.9428 14.6057 39.0732L21.4429 41.9519C21.6073 42.0213 21.7984 42.0149 21.9578 41.9352L35.1087 35.3597C35.1857 35.3212 35.2537 35.2671 35.3085 35.2006C35.3446 35.1569 38.9391 30.8043 40.76 28.8506C42.1002 27.4128 42.3526 25.708 41.4179 24.4023ZM30.5743 30.9341L28.968 31.1032C28.8542 30.7809 28.6899 30.4779 28.4829 30.206C29.8255 28.6167 32.0072 26.0588 33.1744 24.8232C33.5117 24.4661 33.9481 24.4156 34.255 24.437C34.7383 24.4699 35.2339 24.6979 35.6065 25.0427C33.757 27.1305 31.2391 30.1378 30.5743 30.9341Z" fill="white"/>
<path d="M12.0578 36.6631L9.42774 35.5557C9.35202 35.5238 9.27065 35.5074 9.18845 35.5074H0.640333C0.299902 35.5074 0.0238647 35.7833 0.0238647 36.1238C0.0238647 36.4643 0.299902 36.7403 0.640333 36.7403H9.06393L11.5792 37.7993C11.9101 37.9387 12.2979 37.7576 12.4063 37.4165C12.5015 37.1171 12.347 36.7848 12.0578 36.6631Z" fill="white"/>
<path d="M32.7731 20.5544L30.1481 20.9295C32.2827 18.6425 33.4766 15.6465 33.4766 12.4523C33.4766 5.58612 27.8905 0 21.0244 0C14.1582 0 8.57214 5.58612 8.57214 12.4523C8.57214 15.2073 9.45366 17.8181 11.1214 20.0023C12.7354 22.1162 15.0242 23.6844 17.5662 24.4178C17.9024 24.5147 18.2594 24.3032 18.3379 23.9629C18.4105 23.6484 18.2177 23.3227 17.9079 23.2332C13.137 21.8567 9.805 17.4233 9.805 12.4522C9.805 6.26575 14.8381 1.23277 21.0244 1.23277C27.2108 1.23277 32.2438 6.26575 32.2438 12.4522C32.2438 15.5104 31.0297 18.3676 28.8738 20.4704V17.2194C28.8738 16.8788 28.5979 16.6029 28.2574 16.6029C27.9169 16.6029 27.6409 16.8788 27.6409 17.2194V21.8222C27.6409 22.1907 27.9794 22.4849 28.3446 22.4325L32.9474 21.7749C33.2799 21.7274 33.5181 21.41 33.4705 21.0775C33.423 20.7452 33.1052 20.5074 32.7731 20.5544Z" fill="white"/>
<path d="M21.0244 11.8357H20.3668C19.619 11.8357 19.0107 11.2273 19.0107 10.4796C19.0107 9.73176 19.6191 9.12333 20.3668 9.12333H22.997C23.3375 9.12333 23.6135 8.84737 23.6135 8.50686C23.6135 8.16634 23.3375 7.89039 22.997 7.89039H21.6408V7.19172C21.6408 6.85121 21.3648 6.57526 21.0243 6.57526C20.6839 6.57526 20.4079 6.85121 20.4079 7.19172V7.89039H20.3668C18.9392 7.89039 17.7777 9.05188 17.7777 10.4795C17.7777 11.9071 18.9392 13.0686 20.3668 13.0686H21.0243C21.7721 13.0686 22.3806 13.677 22.3806 14.4247C22.3806 15.1724 21.7721 15.7809 21.0243 15.7809H18.3941C18.0537 15.7809 17.7777 16.0568 17.7777 16.3973C17.7777 16.7378 18.0537 17.0138 18.3941 17.0138H20.4079V17.7125C20.4079 18.053 20.6839 18.3289 21.0243 18.3289C21.3648 18.3289 21.6408 18.053 21.6408 17.7125V16.9391C22.7717 16.6618 23.6134 15.64 23.6134 14.4248C23.6135 12.9972 22.452 11.8357 21.0244 11.8357Z" fill="white"/>
</svg>
