<svg width="46" height="46" viewBox="0 0 46 46" fill="none" xmlns="http://www.w3.org/2000/svg">
<path d="M42.9333 2.30121H7.66667C5.973 2.30121 4.6 3.67421 4.6 5.36788V29.9012H0.766667C0.343275 29.9012 0 30.2445 0 30.6679C0 32.3615 1.373 33.7345 3.06667 33.7345H25.3V42.9345C25.3001 43.3579 25.6434 43.7011 26.0669 43.701C26.2701 43.701 26.465 43.6202 26.6087 43.4766L30.6667 39.4186L34.7246 43.4766C34.8684 43.6203 35.0633 43.7012 35.2667 43.7012C35.3675 43.7015 35.4672 43.6818 35.5603 43.6429C35.8467 43.5242 36.0334 43.2446 36.0333 42.9345V33.7345H38.3333C40.027 33.7345 41.4 32.3615 41.4 30.6679V6.13454H45.2333C45.6567 6.13454 46 5.79127 46 5.36788C46 3.67421 44.627 2.30121 42.9333 2.30121ZM39.8667 5.36788V29.9012H36.8V31.4345H39.6604C39.3866 31.9087 38.8808 32.2009 38.3333 32.2012H36.0333V31.4345H34.5V41.0838L31.2087 37.7925C30.9093 37.4932 30.424 37.4932 30.1246 37.7925L26.8333 41.0838V31.4345H25.3V32.2012H3.06667C2.51917 32.2009 2.01336 31.9087 1.73957 31.4345H5.36667H24.5333V29.9012H6.13333V5.36788C6.13333 4.521 6.81979 3.83454 7.66667 3.83454H40.2929C40.017 4.29866 39.8698 4.82795 39.8667 5.36788ZM41.6062 4.60121C42.0304 3.86828 42.9684 3.61796 43.7014 4.04221C43.9334 4.17648 44.1262 4.36929 44.2604 4.60121H41.6062Z" fill="white"/>
<path d="M37.894 26.2928L36.9119 24.5333L37.8979 22.7754C38.1056 22.4064 37.975 21.9389 37.6061 21.7312C37.5876 21.7207 37.5685 21.7109 37.549 21.702L35.719 20.8641L35.4829 18.8631C35.4329 18.4426 35.0515 18.1423 34.6311 18.1922C34.6115 18.1945 34.5921 18.1976 34.5728 18.2014L32.5964 18.5932L31.2294 17.1128C30.9234 16.802 30.4234 16.798 30.1126 17.104C30.1097 17.1069 30.1068 17.1099 30.1039 17.1128L28.737 18.5932L26.7605 18.2014C26.3452 18.1193 25.9418 18.3894 25.8597 18.8048C25.8558 18.824 25.8528 18.8435 25.8505 18.8631L25.6143 20.8641L23.7843 21.7036C23.3993 21.8798 23.2301 22.3348 23.4063 22.7198C23.4152 22.7392 23.4249 22.7583 23.4355 22.7769L24.4214 24.5333L23.4355 26.2913C23.2277 26.6602 23.3583 27.1277 23.7272 27.3355C23.7458 27.3459 23.7648 27.3557 23.7843 27.3646L25.6143 28.2041L25.8505 30.2067C25.9004 30.6271 26.2818 30.9274 26.7022 30.8775C26.7218 30.8752 26.7412 30.8721 26.7605 30.8683L28.737 30.4765L30.1039 31.957C30.3915 32.2677 30.8765 32.2865 31.1873 31.999C31.2019 31.9855 31.2159 31.9715 31.2294 31.957L32.5964 30.4765L34.5728 30.8683C34.7823 30.9111 35.0001 30.8632 35.1724 30.7364C35.3437 30.6101 35.4548 30.4182 35.479 30.2067L35.7152 28.2057L37.5452 27.3662C37.9302 27.1899 38.0994 26.7349 37.9232 26.3499C37.9142 26.3305 37.9045 26.3114 37.894 26.2928ZM35.3648 24.9075L36.1537 26.3151L34.6878 26.9874C34.4448 27.099 34.2775 27.3291 34.2462 27.5946L34.0576 29.1993L32.4729 28.8857C32.2118 28.8314 31.9414 28.9188 31.7615 29.1157L30.6667 30.3025L29.5719 29.1172C29.4268 28.9603 29.2228 28.8711 29.0091 28.8711C28.9591 28.8708 28.9093 28.876 28.8604 28.8865L27.2757 29.2L27.0871 27.5954C27.0559 27.3298 26.8885 27.0997 26.6455 26.9882L25.1796 26.3158L25.9685 24.9082C26.1004 24.6744 26.1036 24.3904 25.9685 24.1584V24.1615L25.1796 22.7539L26.6455 22.0815C26.8885 21.97 27.0559 21.7399 27.0871 21.4743L27.2757 19.8697L28.8604 20.1833C29.1214 20.2368 29.3915 20.1495 29.5719 19.9533L30.6667 18.7642L31.7615 19.9494C31.9413 20.1464 32.2118 20.2338 32.4729 20.1794L34.0576 19.8659L34.2462 21.4705C34.2775 21.736 34.4448 21.9661 34.6878 22.0777L36.1537 22.7501L35.3648 24.1577C35.2343 24.3905 35.2343 24.6746 35.3648 24.9075Z" fill="white"/>
<path d="M30.6667 20.7C28.5496 20.7 26.8333 22.4163 26.8333 24.5333C26.8358 26.6493 28.5507 28.3641 30.6667 28.3667C32.7837 28.3667 34.5 26.6504 34.5 24.5333C34.5 22.4163 32.7837 20.7 30.6667 20.7ZM30.6667 26.8333C29.3964 26.8333 28.3667 25.8036 28.3667 24.5333C28.3667 23.2631 29.3964 22.2333 30.6667 22.2333C31.9369 22.2333 32.9667 23.2631 32.9667 24.5333C32.9667 25.8036 31.9369 26.8333 30.6667 26.8333Z" fill="white"/>
<path d="M29.1333 6.89999H16.8667V8.43413H29.1333V6.89999Z" fill="white"/>
<path d="M36.8 11.5H9.2V13.0341H36.8V11.5Z" fill="white"/>
<path d="M36.8 14.5667H9.2V16.1008H36.8V14.5667Z" fill="white"/>
<path d="M19.9333 24.5333H9.96667V26.0675H19.9333V24.5333Z" fill="white"/>
</svg>
