<svg width="96" height="92" viewBox="0 0 96 92" fill="none" xmlns="http://www.w3.org/2000/svg">
<g clip-path="url(#clip0)">
<path d="M28.435 39.9168L28.4315 39.9753C28.195 43.9455 30.5156 47.6648 34.3451 49.4479L34.3844 49.4663C35.7345 50.0852 36.8411 51.1056 37.5393 52.3743L37.555 52.4019C39.4846 55.923 43.4755 58.0574 47.73 57.8433L47.7946 57.8399C49.3376 57.7571 50.8692 58.1385 52.1748 58.9314C55.7774 61.0909 60.3505 61.0909 63.9531 58.9314C65.2586 58.1385 66.7903 57.7571 68.3332 57.8399L68.3978 57.8433C72.6454 58.0591 76.6416 55.923 78.5755 52.3961L78.5851 52.3768C79.2859 51.1047 80.3951 50.0827 81.7496 49.463L81.781 49.4479C85.6105 47.664 87.932 43.9455 87.6946 39.9745L87.6911 39.9193C87.6125 38.5209 88.0175 37.1367 88.8448 35.9817C91.2265 32.653 91.2265 28.2638 88.8457 24.9343C88.0192 23.7801 87.6125 22.3967 87.6911 20.9984L87.6946 20.9398C87.932 16.9688 85.6105 13.2503 81.7775 11.4655L81.7426 11.4488C80.3951 10.8316 79.2911 9.81624 78.5921 8.55083L78.572 8.51319C76.6416 4.99213 72.6454 2.85857 68.3978 3.07185L68.3324 3.07519C66.7903 3.15799 65.2586 2.77661 63.9539 1.98374H63.9522C60.3496 -0.175734 55.7765 -0.175734 52.1739 1.98374C50.8683 2.77577 49.3367 3.15715 47.7937 3.07436L47.7292 3.07101C43.4807 2.85523 39.4854 4.99129 37.5558 8.51152L37.541 8.53745C36.8419 9.80871 35.7345 10.8299 34.3826 11.4496L34.346 11.4664C30.5165 13.2495 28.195 16.9688 28.4324 20.9398L28.4359 20.995C28.5144 22.3934 28.1095 23.7776 27.2822 24.9317C24.9005 28.2613 24.9005 32.6513 27.2822 35.98C28.1086 37.1342 28.5144 38.5184 28.435 39.9168ZM30.2241 26.8771C31.5009 25.0957 32.1266 22.9596 32.0045 20.8018L32.001 20.7433C31.8753 18.1121 33.4165 15.6682 35.9046 14.55L35.9352 14.5358C37.9765 13.5991 39.6477 12.0568 40.702 10.1382L40.7195 10.1065C42.0015 7.76633 44.6868 6.34786 47.5389 6.49339L47.6017 6.4959C49.8839 6.61884 52.1486 6.05514 54.0791 4.88256C56.5166 3.42144 59.6095 3.42144 62.047 4.88256C63.9775 6.05346 66.2422 6.61801 68.5235 6.49673L68.5863 6.49339C71.4524 6.34953 74.1246 7.76633 75.4032 10.0998L75.4267 10.1424C76.481 12.0585 78.1505 13.5983 80.1892 14.5341L80.2188 14.5484C82.7462 15.7259 84.2805 18.1572 84.126 20.7441L84.1225 20.8052C84.0003 22.963 84.627 25.0982 85.9038 26.8796C87.4467 29.0366 87.4459 31.8802 85.902 34.0363C84.6261 35.8186 84.0003 37.9547 84.1225 40.1125L84.126 40.1702C84.2805 42.7571 82.7462 45.1892 80.218 46.3676L80.1918 46.3793C78.1487 47.3177 76.4757 48.8616 75.4206 50.7836L75.4075 50.8087C74.1246 53.1488 71.4436 54.5681 68.5872 54.4217L68.5252 54.4184C66.2431 54.2963 63.9775 54.8608 62.0462 56.0326C59.6095 57.4929 56.5166 57.4929 54.08 56.0326C52.324 54.9662 50.2871 54.4008 48.2083 54.4025C48.0067 54.4025 47.8042 54.4075 47.6017 54.4184L47.5389 54.4209C44.7244 54.5924 42.0617 53.1806 40.7168 50.8045L40.6985 50.7719C39.646 48.8566 37.9774 47.3177 35.9396 46.3818L35.9064 46.3659C33.3781 45.1883 31.8439 42.7562 31.9992 40.1702L32.0027 40.1091C32.124 37.9513 31.4974 35.8153 30.2215 34.0347C28.6794 31.8777 28.6803 29.0341 30.2241 26.8788V26.8771Z" fill="#FE0101"/>
<path d="M46.5309 48.1629C47.3679 48.6639 48.4701 48.4188 48.9929 47.6168L70.166 15.1109C70.5116 14.5915 70.5404 13.9341 70.2402 13.3896C69.94 12.8443 69.357 12.4964 68.7147 12.4772C68.0723 12.4579 67.4684 12.7707 67.1333 13.2968L45.9611 45.8027C45.4383 46.6056 45.6931 47.6619 46.5309 48.1629Z" fill="#FE0101"/>
<path d="M48.4282 30.5399C52.7804 30.5399 56.3219 26.6701 56.3219 21.9137C56.3219 17.1573 52.7804 13.2883 48.4282 13.2883C44.0759 13.2883 40.5353 17.1573 40.5353 21.9137C40.5353 26.6701 44.0759 30.5399 48.4282 30.5399ZM48.4282 16.7141C50.8098 16.7141 52.7473 19.0467 52.7473 21.9137C52.7473 24.7807 50.8098 27.1142 48.4282 27.1142C46.0474 27.1142 44.1099 24.7799 44.1099 21.9137C44.1099 19.0475 46.0474 16.7141 48.4282 16.7141Z" fill="#FE0101"/>
<path d="M59.805 38.9989C59.805 43.7553 63.3456 47.6243 67.6979 47.6243C72.0501 47.6243 75.5916 43.7544 75.5916 38.9989C75.5916 34.2442 72.051 30.3735 67.6988 30.3735C63.3456 30.3735 59.805 34.2417 59.805 38.9989ZM72.017 38.9989C72.017 41.8659 70.0795 44.1985 67.6979 44.1985C65.3171 44.1985 63.3797 41.8659 63.3797 38.9989C63.3797 36.1319 65.3171 33.7993 67.6979 33.7993C70.0795 33.7993 72.017 36.1302 72.017 38.9989Z" fill="#FE0101"/>
<path d="M95.7681 67.4417C93.4013 63.4164 88.1528 61.8833 83.8459 63.9591L69.8448 70.2987C67.9117 66.8538 64.2035 64.6609 60.1227 64.5505L47.1977 64.2092C45.1511 64.1532 43.143 63.6556 41.3234 62.7556L40.0082 62.1024C33.2743 58.7386 25.2478 58.747 18.5209 62.1242L18.6029 59.2689C18.63 58.3229 17.8524 57.5351 16.8653 57.5092L2.69234 57.1353C1.70529 57.1094 0.884063 57.8546 0.857009 58.8005L0.000868194 88.6075C-0.0261863 89.5534 0.751409 90.3412 1.73846 90.3672L15.9115 90.741H15.9612C16.9291 90.7402 17.7206 90.0017 17.7477 89.075L17.7878 87.649L21.4698 85.7597C22.9151 85.0145 24.6055 84.8372 26.1843 85.2654L48.1708 91.1793C48.2092 91.1901 48.2476 91.1985 48.2868 91.2069C49.8761 91.5255 51.4958 91.6853 53.12 91.6844C56.5585 91.6861 59.9569 90.976 63.0821 89.6011C63.1589 89.5676 63.2331 89.5291 63.3038 89.4856L95.1825 69.7233C95.9776 69.2316 96.2342 68.2304 95.7681 67.4417ZM3.62354 86.9891L4.38106 60.6079L14.9811 60.8872L14.2227 87.2693L3.62354 86.9891ZM61.471 86.54C57.5883 88.2194 53.2517 88.6827 49.0784 87.8648L27.1504 81.9676C24.6832 81.2985 22.0406 81.5762 19.7829 82.7396L17.9013 83.7047L18.4057 66.1638C24.3673 62.3634 32.0141 61.9728 38.364 65.1434L39.6792 65.7966C41.9779 66.9341 44.5141 67.5622 47.0999 67.6333L60.0249 67.9745C63.6555 68.074 66.7388 70.5513 67.4754 73.9603L48.2231 73.4527C47.2361 73.4267 46.4148 74.1719 46.3878 75.1178C46.3607 76.0638 47.1383 76.8516 48.1254 76.8775L69.3718 77.4379H69.4224C70.3894 77.4371 71.1809 76.6986 71.208 75.7719C71.2298 75.0275 71.1713 74.2823 71.0352 73.5497L85.3932 67.047L85.4351 67.0277C87.472 66.0392 89.9357 66.3695 91.6105 67.8557L61.471 86.54Z" fill="#FE0101"/>
</g>
<defs>
<clipPath id="clip0">
<rect width="96" height="92" fill="white"/>
</clipPath>
</defs>
</svg>
